<svg xmlns="http://www.w3.org/2000/svg" viewBox="0 0 64 64" fill="none">
  <!-- Lantern body -->
  <rect x="22" y="20" width="20" height="28" rx="3" stroke="#e6c000" stroke-width="2.5" fill="none"/>
  <rect x="26" y="16" width="12" height="4" rx="1" fill="#e6c000"/>
  <line x1="32" y1="12" x2="32" y2="16" stroke="#e6c000" stroke-width="2" stroke-linecap="round"/>
  <circle cx="32" cy="10" r="2" fill="#e6c000"/>
  <!-- Flame -->
  <path d="M32 28c-2 0-4 3-4 6s2 6 4 6 4-3 4-6-2-6-4-6z" fill="#e6c000" opacity="0.9"/>
  <path d="M32 30c-1 0-2 2-2 4s1 4 2 4 2-2 2-4-1-4-2-4z" fill="#ffffff" opacity="0.7"/>
  <!-- Base -->
  <rect x="24" y="48" width="16" height="3" rx="1" fill="#e6c000"/>
</svg>
